<svg width="25" height="26" viewBox="0 0 25 26" fill="none" xmlns="http://www.w3.org/2000/svg">
<path d="M4.25307 15.2925C3.55145 11.8872 3.20064 10.1846 4.08008 9.05325C4.95953 7.92188 6.63381 7.92188 9.98239 7.92188H15.0177C18.3663 7.92188 20.0405 7.92188 20.92 9.05325C21.7994 10.1846 21.4486 11.8872 20.747 15.2925L20.3285 17.3237C19.8529 19.6317 19.6151 20.7858 18.8094 21.4632C18.0036 22.1406 16.8689 22.1406 14.5991 22.1406H10.4009C8.13125 22.1406 6.99641 22.1406 6.19068 21.4632C5.38495 20.7858 5.14716 19.6317 4.67161 17.3237L4.25307 15.2925Z" stroke="#FE4750"/>
<path d="M3.71094 11.9844H21.2891" stroke="#FE4750" stroke-linecap="round" stroke-linejoin="round"/>
<path d="M10.5469 15.0312H14.4531" stroke="#FE4750" stroke-linecap="round" stroke-linejoin="round"/>
<path d="M18.3594 9.95312L15.4297 3.85938" stroke="#FE4750" stroke-linecap="round" stroke-linejoin="round"/>
<path d="M6.64062 9.95312L9.57031 3.85938" stroke="#FE4750" stroke-linecap="round" stroke-linejoin="round"/>
</svg>
